<?xml version="1.0" encoding="UTF-8"?>
<svg version="1.1" viewBox="0 0 1600 845" width="1059" height="560" xmlns="http://www.w3.org/2000/svg">
<path transform="translate(0)" d="m0 0h1600v845h-1600z" fill="#0179BC"/>
<path transform="translate(0)" d="m0 0h1244v192l-24 14-21 12-24 14-22 13-11 6-45 26-28 16-24 14-52 30-23 13-7 4-1 9-5 10-9 7-20 11-24 14-28 16-24 14-21 12-26 15-24 14-21 12-19 11-23 13-17 10-19 11-45 26-23 13-17 10-19 11-49 28-17 10-25 14-20 12h-2v-16l-20 11-25 15-18 10-24 14-78 45-21 12-26 15-17 10-6-2-10-7-1-183v-99l1-1h-220z" fill="#0179BD"/>
<path transform="translate(1031,375)" d="m0 0 5 1 1 8h5l1 5-1 2h-3v4l3 1 2 4h11l3 5-1 5-13 4-21 3-10 5h-2l-2 4-12 11-6 8-5 5-2 3h-2l-2 4-7 9-2 4 1 7 6 8 6 7 11 8 12 9 2 1v-14l-7-8-9-10 1-4 10-9 7-7 3-1 3 31v9h6l2 2 1 6-5 6-3 1-4 14v57l1 31 8 79v9l-2 1-19 2 2 5 5 2h33l1-13 25 4h9l1-16 2-77v-41l-2-57-3-14v-11l2-6 21-14 9-7 4-2 14 8 24 14 26 15 15 9 52 30 16 10 11 6 21 12 26 15 16 10 4 5 1 10v20l-3 6-7 6-25 14-24 14-23 13-24 14-21 12-24 14-28 16-26 15-24 14-23 13-24 14-28 16-24 14-21 12-24 14-3 2h-494l-3-7-1-5v-13l3-5 7-6 24-13 24-14 18-10 15-9-5-4-26-15-18-11-11-6-18-10-18-11-5-8 1-7 4-5 28-16 24-14 28-16 52-30 21-12 130-75 24-14 23-13 24-14 26-15 28-16 24-14 28-16 19-11 26-15 13-4h14l14 5 22 13 3 2 6-1 3-3 1-5-5-1-4-10v-12z" fill="#FDFDFD"/>
<path transform="translate(981,343)" d="m0 0h3v23l-3 10-7 11-4 4-5 4-18 10-24 14-28 16-24 14-26 15-28 16-26 15-21 12-19 11-104 60-17 10-23 13-19 11-78 45-21 12-26 15-6 4-3 5 1 7 4 6 26 15 17 10 11 6 24 14 18 11-3 3-22 13-25 14-35 20-5 5-1 3v13l3 12h-467v-364l190-1h31l-1 2v99l1 183 11 7 4 1 26-15 21-12 45-26 78-45 24-14 26-15 7-4h2v16l19-11 23-13 43-25 23-13 45-26 21-12 26-15 21-12 15-9 63-36 24-14 26-15 21-12 43-25 28-16 45-26 5-4 5-10 1-9z" fill="#0869AA"/>
<path transform="translate(875,102)" d="m0 0 4 1 10 6 3 1v285l-10 5h-3v2l-12 6-14 9-11 6-15 8-10 6-18 11-11 6-8 5h-3v2l-12 6-43 25-15 9-11 6-15 9-16 9-13 8-11 6-21 12-10 6-11 6-15 9-7-1-10-6-1-1v-283l15-9 26-15 28-16 19-11 26-15 17-10 23-13 27-16 23-13 27-16 25-14 24-14 23-13z" fill="#FBFCFC"/>
<path transform="translate(530,302)" d="m0 0 9 5 6 4v283l-16 10-10 6-14 7-9 6-14 8-13 8-12 6-22 13-19 11-130 75-24 14-21 12-5 3-6-2-10-7-1-183v-99l9-6 25-14 17-10 26-15 24-14 28-16 24-14 25-14 17-10 18-11 17-9 27-16 26-15 24-14z" fill="#FBFCFC"/>
<path transform="translate(1054)" d="m0 0h190v192l-24 14-21 12-24 14-22 13-11 6-45 26-28 16-24 14-52 30-23 13-13 8-9 5-12 7-4 1-14-8v-284l19-11 45-26 24-14 25-14 20-12z" fill="#FCFCFD"/>
<path transform="translate(775,556)" d="m0 0h29l31 3 26 5 30 10 16 8 11 6 11 8 10 9 10 10 8 14 4 10 2 15v53l-3 12-7 14-8 11-10 10-15 11-18 10-25 10-21 6-28 5-19 2h-37l-26-3-29-6-17-5-21-9-15-8-3-2-5 1-6 3-5-13-6-10-4-5-6-5-8-18-3-13v-40l1-21 4-13 6-11 8-10 12-12 16-11 23-12 19-7 26-7 30-4z" fill="#5A75AB"/>
<path transform="translate(791)" d="m0 0h192v26l-48 28-10 6-11 6-52 30-10 6-11 6-24 14-16 9-8 5-5 1-13-8v-48l-10 6-14 8-12 7-16 9-26 15-17 10-18 10-22 13-8 5h-3v54l-13 7-17 10-26 15-21 12-26 15-22 13-11 6-14 8-17 10-18 10-6 4h-5l-12-8v-119l16-10 25-14 9-6 11-6 14-8 23-13 11-7 12-6 13-8 49-28 9-5 5 1 11 7v48l11-6 24-14 28-16 24-14 49-28 8-5h2v-54z" fill="#FCFCFD"/>
<path transform="translate(1327,339)" d="m0 0 5 1 12 7 23 13 9 6 10 5 11 7 11 6 12 7 18 10 16 10 11 6 14 8 24 14 18 11 11 6 9 5v16l-28 16-26 15-23 13-22 13-49 28-17 10-7 4-5-1-48-28-28-16-15-9-28-16-24-14-26-15-39-23v-16l12-7 13-8 11-6 14-8 22-13 11-6 8-5 11-6 17-10 21-12 22-13z" fill="#FAFBFC"/>
<path transform="translate(983)" d="m0 0h71l-3 3-24 14-23 13-24 14-19 11-26 15-15 9h-2l1 284 13 7 4-1 9-5 9-6 6-3 3 1-1 7-5 10-9 7-20 11-24 14-28 16-24 14-21 12-26 15-24 14-21 12-19 11-23 13-17 10-19 11-45 26-23 13-17 10-19 11-49 28-17 10-25 14-20 12h-2v-17l24-14 15-9 12-7 11-6 17-10v-283l-13-8-14 7-17 10-24 14-10 6h-2v-28l22-13 14-8 24-14 18-10 21-12 52-30 10-6 4-1v-54l11-6 36-21 11-6 41-24 11-6 14-8 12-7 8-5h2l1 48 12 7 7-2 16-10 11-6 25-14 8-5 25-14 22-13 19-11 21-12 19-11 17-10 4-2zm-108 102-15 9-49 28-26 15-24 14-21 12-27 16-27 15-20 12-23 13-24 14-45 26-8 5v283l8 5 5 3 7-1 21-13 12-6 11-7 11-6 14-8 20-12 11-6 17-10 24-14 21-12 24-14 5-2v-2l4-1 14-8 19-11 18-11 11-6 13-7 15-9 8-4v-2l4-1 9-4v-285l-11-6-3-2z" fill="#0A87C7"/>
<path transform="translate(1031,375)" d="m0 0 5 1 1 8h5l1 5-1 2h-3v4l3 1 2 4h11l3 5-1 5-13 4-21 3-10 5h-2l-2 4-10 9-5-1-17-10h-6l-25 14-22 13-24 14-56 32-29 17-25 14-34 20-16 9-3 3-8 3-25 7-20 8-21 11-16 12-12 12-9 14-5 12-1 5-1 21v40l4 16 8 16 5 4 8 11 5 11 2 9v8l-4 10-7 6-16 7-19 11-27 15-23 13-4 3h-84l-3-7-1-5v-13l3-5 7-6 24-13 24-14 18-10 15-9-5-4-26-15-18-11-11-6-18-10-18-11-5-8 1-7 4-5 28-16 24-14 28-16 52-30 21-12 130-75 24-14 23-13 24-14 26-15 28-16 24-14 28-16 19-11 26-15 13-4h14l14 5 22 13 3 2 6-1 3-3 1-5-5-1-4-10v-12z" fill="#FCFCFD"/>
<path transform="translate(971,423)" d="m0 0h6l19 11 2 2-7 9-5 5-2 3h-2l-2 4-7 9-2 4 1 7 6 8 6 7 11 8 12 9 2 1v-14l-7-8-9-10 1-4 10-9 7-7 3-1 3 31v9h6l2 2 1 6-5 6-3 1-4 14v57l1 31 2 19v12l-16 8-23 13-14 8-2-7v-13l-2-15-5-12-7-12-16-16-11-8-17-10-16-7-27-9-26-5-31-3h-29l-29 3-12 1 5-4 13-8 20-11 13-8 25-14 24-14 26-15 49-28 17-10 29-17z" fill="#CBDCEB"/>
<path transform="translate(771,600)" d="m0 0h39l23 3 23 6 16 6 17 9 11 8 7 6 8 10 7 14v9l-6 12-8 10-11 10-13 8-19 9-24 7-21 4-27 2-22-1-27-4-25-7-18-8-15-9-10-9-5-5-7-9-6-13 2-9 7-12 9-10 9-8 11-7 16-8 24-8 25-5z" fill="#A9C6DD"/>
<path transform="translate(1041,362)" d="m0 0 12 2 7 4 4 8v9l-3 8-5 7h15l12 6 13 11v2l3 1 3 5 8 7 7 8 1 5-5 9-3 5-13 10-16 10-4 3-1 5v11l3 14 2 57v41l-2 77-1 16-1 1h-9l-24-4-2 12-2 1h-31l-5-2-2-2v-4l9-2 12-1-9-88-1-31v-57l4-14 6-4 2-4-2-6-6-1-4-39-8 7-8 8-3 2 1 4 14 15 1 2v8l-1 6-5-2-14-11-9-7-9-11-2-4 1-7 4-6 7-9h2l2-4 9-10 7-8 8-7 4-4 9-4 25-4 9-3-1-5-1-3h-11l-3-5-2-1v-4h3v-7l-6 1-1-9-5-2-1-4 5-6z" fill="#C01C30"/>
<path transform="translate(791)" d="m0 0h192v26l-48 28-10 6-11 6-52 30-10 6-11 6-24 14-16 9-8 5-5 1-13-8v-22l1-98 13-8z" fill="#FBFCFC"/>
<path transform="translate(619,669)" d="m0 0 2 1 3 9 6 12 9 11 11 11 13 9 14 7v2l7 2 26 10 7 2 20 4 8 2 22 2 4 1h36l22-2 13-2 10-2 14-4 12-3 13-5 9-4 19-10 13-10 3-4 5-3 10-12 4-8h2l2-8h2l1-5h1v39l-4 13-8 14-12 13-12 10-20 12-23 10-19 6-29 6-26 3h-37l-26-3-29-6-17-5-21-9-15-8-3-2-5 1-6 3-5-13-6-10-4-5-6-5-8-18-2-7z" fill="#26407C"/>
<path transform="translate(981,343)" d="m0 0h3v23l-3 10-7 11-4 4-5 4-18 10-24 14-28 16-24 14-26 15-28 16-26 15-21 12-19 11-104 60-17 10-23 13-19 11-78 45-21 12-26 15-5 3-9-1-5-6-1-2v-25l9-6 11-6h2v16l19-11 23-13 43-25 23-13 45-26 21-12 26-15 21-12 15-9 63-36 24-14 26-15 21-12 43-25 28-16 45-26 5-4 5-10 1-9z" fill="#182343"/>
<path transform="translate(1079,642)" d="m0 0h1v17l6 2 28 16 17 10 2 3-9 6-25 14-22 13-17 10-10 9-17 17-9 6-8 1-5-3-5 1-28 16-6 2-16-9-17-10-3-2h-5l-11 9-15 9-16 8-21 8-18 5-21 4-18 2-17 1h-21l-32-3-22-4-23-7-21-9-13-7-9-6 2-5 3-2 5 1 14 8 18 8 18 6 27 6 20 3 12 1h37l26-3 29-6 24-8 20-9 18-11 13-11 10-11 8-14 4-13 1-4 1-38 2 4 15-9 18-10 16-9 4-1 5 49v9l-2 1-19 2 2 5 5 2h33l1-13 25 4h9l1-16z" fill="#CBDCEB"/>
<path transform="translate(611,730)" d="m0 0h8l11 6 6 5 8 11 5 11 2 9v8l-4 10-7 6-16 7-19 11-27 15-23 13-4 3h-84l-3-7-1-5v-13l3-5 7-6 24-13 24-14 18-10 15-9 13-8 25-14z" fill="#FEE750"/>
<path transform="translate(1078,521)" d="m0 0h1l1 12 1 36v41l-2 77-1 16-1 1h-9l-24-4-2 12-2 1h-31l-5-2-2-2v-4l9-2 12-1-9-88-1-31v-52l14 7h16l15-4 13-7z" fill="#182444"/>
<path transform="translate(1218,61)" d="m0 0h1v59l-24 14-23 13-17 10-49 28-19 11-26 15-24 14-42 24-26 15-6 4h-3v2l-3 1 2-5 11-19 14-24 2-3 20 5 2-5 8-13h2l1-5 9-13 4-7 7 1 16 4h6l11-16 8-12 8-10 2-5 3-1 2-4 11-16 7-10 7 1 26 7 9 3h5l11-13 9-10 14-15 9-10 6-5 7-8z" fill="#1BBBD5"/>
<path transform="translate(1385,395)" d="m0 0 7 1 23 13 24 14 9 5v2l-24 13-24 14-28 16-29 17-26 15-7 3-16-8-13-8-23-13-8-5v-2l20-11 24-14 18-11 9-5 8-2 1-3 35-20 16-9z" fill="#D2CEE6"/>
<path transform="translate(1335,601)" d="m0 0 2 1v20l-3 6-7 6-25 14-24 14-23 13-24 14-21 12-24 14-28 16-26 15-24 14-23 13-24 14-28 16-24 14-21 12-24 14-3 2h-43l5-4 7-4h3v-2l6-3 9-5 7-4 16-9h2v-2l6-3 9-5 7-4h2v-2l7-2v-2l8-4 6-2v-2l5-1v-2l4-2h3v-2l8-5 6-1v-2l11-6 12-7 11-6 10-6 22-12h2v-2l5-1v-2l6-3 19-11 11-6 7-4 9-6 6-3 11-6 9-6 22-12 7-4 9-6 6-3 10-6 11-6 6-2v-2l5-1v-2l8-4 11-6 7-4 9-6 12-6 5-3 10-7z" fill="#82B7EB"/>
<path transform="translate(875,102)" d="m0 0 4 1 10 6v3l-10 6-26 15-24 14h-2v2l-14 7-24 14-28 16-17 10-42 24-48 28-71 41h-2v283l-5-2-9-5-1-1v-283l15-9 26-15 28-16 19-11 26-15 17-10 23-13 27-16 23-13 27-16 25-14 24-14 23-13z" fill="#80B6EB"/>
<path transform="translate(530,302)" d="m0 0 9 5 5 4-11 7-21 12-24 14-28 16-17 10-28 16-24 14-28 16-29 17-26 15-28 16-17 10-16 9-12 7v261l1 22-6-2-10-7-1-183v-99l9-6 25-14 17-10 26-15 24-14 28-16 24-14 25-14 17-10 18-11 17-9 27-16 26-15 24-14z" fill="#81B6EB"/>
<path transform="translate(771,600)" d="m0 0h39l23 3 23 6 16 6 17 9 11 8 7 6 8 10 6 11-1 4-5 1-25 14-22 13-26 15-20 12-5 1-12-6-9-6 4-4 51-30 19-11 23-13-1-6-6 1-19 11-5-1-16-9-3-2-3 1v3l17 11-2 4-15 9-3 2h-8l-16-9-2-4 20-12h2v-2h-3v-3l-16 10-10 5-10-4-10-7-1-4 9-6 2-4 1-3-7-1-11-7-6-6-5 1-7 2v2l-6 3-7-1-18-10v-2h2l1-3 13-4 17-3z" fill="#A9C6DD"/>
<path transform="translate(1335,364)" d="m0 0 16 8 30 18-4 3-26 15-24 14-21 12-24 14-28 16-9 5h-5l-15-9-22-13-4-4 8-5 25-14 27-16 42-24 24-14z" fill="#D1CFE7"/>
<path transform="translate(1054)" d="m0 0h30l-5 4-25 14-22 13-26 15-24 14-25 14-22 13-2 1v282l2 1-5-1-12-7v-284l19-11 45-26 24-14 25-14 20-12z" fill="#82B7EB"/>
<path transform="translate(624,623)" d="m0 0h3l-2 6-4 10-1 5-1 21v40l4 16 6 12-1 3-9-5h-8l-7 4-7-1-52-30-17-10-13-8 4-3 24-13 24-14 25-14 15-9z" fill="#CCDCEB"/>
<path transform="translate(1155,454)" d="m0 0 6 2 26 15 27 16 28 16 24 14 21 12 22 13 21 12 27 16 11 6v1l-9 2-5-1-18 1-9 2-4 1-25-14-17-10-20-12-11-6-24-14-26-15-27-16-26-15-20-12-1-2 9 3 5 3 7 1-4-5 1-5 9-2z" fill="#0969AA"/>
<path transform="translate(777,578)" d="m0 0h27l24 3 25 6 19 7 14 7 17 12 10 10 8 14 4 11v13l-2 4-9-17-11-13-14-10-19-10-24-8-19-4-17-2h-39l-22 3-23 6-19 7-18 10-13 11-9 10-7 14-1 3h-2v-15l2-10 7-14 11-12 11-9 16-9 17-7 22-6 23-4z" fill="#416197"/>
<path transform="translate(683,341)" d="m0 0 6 1 13 6 9 3 11 5 3 2 6 2 15 6 18 8 7 3-1 4-10 14-9 11-8 7-10 7-10 6-13 4h-12l-6-2-9-6-6-7-4-9-1-5v-28l3-13 4-10z" fill="#47A1D9"/>
<path transform="translate(1156,441)" d="m0 0 7 3 22 12 21 12 48 28 18 10 17 10 23 13 48 28 6 3 6-1 24-14 21-12 22-13 21-12 24-14 25-14 24-14 4-2h3l1-3v16l-28 16-26 15-23 13-22 13-49 28-17 10-7 4-5-1-48-28-28-16-15-9-28-16-24-14-26-15-39-23z" fill="#D1CFE7"/>
<path transform="translate(723,610)" d="m0 0 4 1v2l-3 2 21 12-4 4-14 8-4 3 2 2 5-2 7 1 15 10 1 3-18 10-6 2v2l-3 2 3 1 10-5 6 1 11 6 7 5-4 4-19 11h-6l-18-10-1-3h2v-3l-6 1-16 9-6-1-2 6-5 4-4-1-6-5-8-11-6-13 2-9 7-12 9-10 9-8 11-7 16-8z" fill="#AAC6DC"/>
<path transform="translate(1079,642)" d="m0 0h1v17l6 2 28 16 17 10 2 3-9 6-25 14-22 13-17 10-10 9-17 17-9 6-8 1-5-3-5 1-28 16-5 1 5-4 16-9 10-6-3-11-7-6-5-7 1-4 12-11 11-8v-2l14-1h15l1-13 25 4h9l1-16z" fill="#B6C4D5"/>
<path transform="translate(1079,479)" d="m0 0 2 1-1 4 6 2 27 15 15 9 26 15 10 6v2l-22 12-10 6-41 24-9 5h-1l-1-11-2-57-3-14v-11l2-6z" fill="#CCDCEB"/>
<path transform="translate(773,81)" d="m0 0h2v26l-27 15-24 14-19 11-28 16-24 14-23 13h-1v-26l11-6 36-21 11-6 41-24 11-6 14-8 12-7z" fill="#182444"/>
<path transform="translate(613,90)" d="m0 0 5 1 10 6-4 4-21 12-26 15-23 13-17 10-26 15-21 12-26 15-17 10-11 6v113l-2 1-1-10-1-42-2-18 1-18 1-7v-14l-3-4v-2h-2l-3-5v-2l-2-1 48-28 14-8 12-7 23-13 11-7 12-6 13-8 49-28z" fill="#95DDFA"/>
<path transform="translate(545,313)" d="m0 0h1l2 17 1 6h2v3l3 1v2h3l2 13 2-2 1-6h1l2-8h1l1 189-1 16-2-4v-8l-1-2-1-21 2-8-1-25-2-9v2h-2l-1-2-2 9v18l2 11-1 23-3 3h-2l-1 7h-2v12l-1 4v33l-1 7h-1l-1-158z" fill="#0179BD"/>
<path transform="translate(623,803)" d="m0 0 5 1 52 30 14 8 3 3h-146l4-4 52-29z" fill="#0967A7"/>
<path transform="translate(907,641)" d="m0 0 4 2 7 10 3 6-1 4-5 1-25 14-22 13-26 15-20 12-5 1-12-6-9-6 4-4 51-30 19-11 28-16z" fill="#CBDCEB"/>
<path transform="translate(775,9)" d="m0 0h1v98h-1v-26l-10 6-14 8-12 7-16 9-26 15-17 10-18 10-22 13-8 5h-3v-18l11-6 24-14 28-16 24-14 49-28 8-5h2z" fill="#80B7EB"/>
<path transform="translate(768,282)" d="m0 0 6 3 8 9 4 9 2 9v19l-4 18-5 15-7-1-35-15-3-3 14-27 12-22 7-13z" fill="#EE544C"/>
<path transform="translate(1337,426)" d="m0 0h27v2l7 1 6 4 3 3v2h2l1 5v10l-3 6-6 5-10 4-4 1h-18v5l-1 1-10-1-12-6-5-5-1-9 3-7 2-9 5-7 11-4z" fill="#EE504A"/>
<path transform="translate(923,762)" d="m0 0 3 1-6 7-15 9-16 8-21 8-18 5-21 4-18 2-17 1h-21l-32-3-22-4-23-7-21-9-13-7-9-6 2-5 3-2 5 1 14 8 18 8 18 6 27 6 20 3 12 1h37l26-3 29-6 24-8 20-9z" fill="#CDDDEB"/>
<path transform="translate(983)" d="m0 0h71l-3 3-24 14-23 13-24 14-19 11-5 3-3-1 3-3h4l-1-6-12 2-3 3-7 4-9 4-10 7-21 12-16 8h-2l2-4 23-13 17-10 21-12 19-11 17-10 4-2z" fill="#0178BC"/>
<path transform="translate(904,573)" d="m0 0h6l14 8 5 3v2l-5 5h6l5-2 5 1 14 8 4 4-10 7 1 4 4 1 17-9 20-12 6-3h7l10 6v12l-22 12-25 15-6 2-10-19-9-10-9-9-11-8-17-10-9-4v-2z" fill="#FDFDFD"/>
<path transform="translate(791)" d="m0 0h28l-3 3-13 7-10 6-3 1-1 120-11-6-3-2v-22l1-98 13-8z" fill="#BFE3F4"/>
<path transform="translate(1079,642)" d="m0 0h1v17l6 2 28 16 17 10v3l-28 16-27 16-14 8-2-1 8-9 7-9 3-4v-20z" fill="#CADBEA"/>
<path transform="translate(1176,58)" d="m0 0 5 1 23 13 1 2-7 9h-2l-2 4-8 8-7 8-11 12-7 9-7-1-14-5 2-5 9-14 9-15 9-14 6-11z" fill="#FEDA42"/>
<path transform="translate(729,608)" d="m0 0 2 1-1 2h-2v2l6 2 14 8h5l6-2v-2l8-4 5 1 8 7 11 6 4 1 1 3-3 2 1 2-10 6 1 4 8 5-3 1 5 5 1 2-5-2-14-8-7 1-14 7-5-1 2-1-5-5-11-7-7-1-7 2-1-4 22-13-4-3-15-8-4-2 1-2h5v-2l-2-1z" fill="#B5C4D5"/>
<path transform="translate(738,283)" d="m0 0h2v9l-8 50-2 3-38-16-1-4 14-18 10-10 13-9z" fill="#EE534C"/>
<path transform="translate(754,602)" d="m0 0h13l8 6 1 1 9-1 6-2 3-2h9l12 7 5 5-10 7-14 9-1-2-7-1-11-7-6-6-5 1-7 2v2l-6 3-7-1-18-10v-2h2l1-3 13-4z" fill="#CBDCEB"/>
<path transform="translate(1013,612)" d="m0 0 2 2 2 19v12l-16 8-23 13-14 8-2-7 1-20 12-6 17-10 20-12z" fill="#FDFDFD"/>
<path transform="translate(421,201)" d="m0 0h3l3 5v2h2l4 6v14l-2 19 1 18 1 6 1 48 1 9-5-2-9-6z" fill="#BCDFF2"/>
<path transform="translate(882,13)" d="m0 0h3v45l5-1-3 3-21 12-26 15-24 14-6 2v-79h1v77l5-3 1-19 6-5h1l1 5v14l7-4v-32l2-4 5-1v33l8-5v-19l5-3h3l1 17 6-3 1-30 6-3 1 1v27l7-4v-44l1-4z" fill="#A3604D"/>
<path transform="translate(500,539)" d="m0 0h1v6l-16 9-17 10-52 30-24 14-25 14-27 16-23 13-27 16-12 6v-6l15-9 18-10 27-16 56-32 24-14 21-12 52-30z" fill="#5A75AA"/>
<path transform="translate(734,704)" d="m0 0 7 1 16 9 3 3-14 8 9 2h7l2-4 20-12 5 1 18 11-1 3-8 6-5 1-22-1-27-4-25-7-7-3 1-3 16-8z" fill="#CADCEB"/>
<path transform="translate(462,711)" d="m0 0 6 2 15 10 6 5 16 8 11 6 10 6 7 3 17 10-1 3-6 2-5-4-18 2-5-3-5-5-1 3-8-5v-2l-4-2-3-3-1 2-2-2-10-4-5-3 1-3 4 1v-4l-5-2-11-9-2-3z" fill="#47A1D9"/>
<path transform="translate(473,809)" d="m0 0 11 2 9 6 7 7 8 14 2 7h-43l-3-7-1-5v-13l3-5z" fill="#EF8949"/>
<path transform="translate(917,662)" d="m0 0h5v9l-2 3-4 2-26 15-21 12-15 9-23 13-2-2-12-2 2-3 12-6 25-15 26-15 21-12z" fill="#A9C6DD"/>
<path transform="translate(893,271)" d="m0 0 2 3 3 6 6 1 3-3h3l1 4v57l-3 5-3 1-6-2-4 10-1 10h-1l-1-40v-49z" fill="#0179BD"/>
<path transform="translate(918,673)" d="m0 0h2l-1 5-9 13-7 7-12 9-21 11-21 7-22 5h-10l4-2 12-5 21-12 17-10 21-12 24-14z" fill="#C9DBEA"/>
<path transform="translate(1152,52)" d="m0 0 4 2 13 11-7 12-15 23-10 16-2 1-11-3-1-3 8-16 12-25z" fill="#EE534D"/>
<path transform="translate(1041,362)" d="m0 0 12 2 7 4 4 8v9l-3 8-5 7h15l12 6 13 11v2l3 1v2l-5-2-8-6-13-8-5-2-12-2-5-1h-7l-3-5-2-1v-4h3v-7l-6 1-1-9-5-2-1-4 5-6z" fill="#182342"/>
<path transform="translate(843,641)" d="m0 0 5 4 16 9 5-1 19-11 4 1 2 5-3 3-25 14-54 32-10 6h-2l-1-3v-2-3-2l14-7 13-7 2 1 5-3 1-3h-5v-1l8-1 18-11 1-3-16-10-3-2h3v-2z" fill="#B6C4D5"/>
<path transform="translate(1047,592)" d="m0 0h2l3 14 3 32 4 53h-15v-54l-1-17-1-10z" fill="#CCDCEB"/>
<path transform="translate(576,131)" d="m0 0h2v12h-3l-2 6-4 8-6 16-4 8-6 16-1 2h-27l-24 36-7 9h-22l2-7 1-1 19-1 23-35 7-10h12l14 1 1-5 14-33 4-10 1-5z" fill="#ED5D53"/>
<path transform="translate(446,694)" d="m0 0 5 3 2 6 4 1 9 6 26 15 10 6 11 6 24 14 18 11-3 3-15 9-6-1-22-13 1-4 4 2 3 4 4 1 17-2 6 4 5-2v-2l-19-11-7-3-15-9-12-6-7-3-10-8-15-9-2-1 3 11 11 9 5 3 1 6-5-2-1 2-5-2-12-7-4-5-1-9h-4l1-6-3-8-3-2v-6z" fill="#0D86C6"/>
<path transform="translate(1363,503)" d="m0 0 4 1 22 13 1 3-19 10-10 6-6-1-15-9-8-4 3-3 23-13z" fill="#D1CFE7"/>
<path transform="translate(689,633)" d="m0 0 6 2 16 10v3l-22 13-8-1-12-7h-3v3l14 8-4 4-11 7h-4l-3-7 2-9 7-12 3-4 16-8z" fill="#CBDCEB"/>
<path transform="translate(626,808)" d="m0 0 10 3 6 4 4 4 8 3 5 3 12 7 6 3 2 2 5 2 7 1 6 4v1h-30l-12-12-30-6-10-6 2-7 6-5z" fill="#47A1D9"/>
<path transform="translate(1451,432)" d="m0 0 6 1 2 3-20 12-22 12-27 16-28 16-3 2-5-1-4-3 9-6 11-6 18-10 28-16 24-14z" fill="#D1D0E7"/>
<path transform="translate(499,403)" d="m0 0h3v120l-5 3h-2v-120z" fill="#EF8A49"/>
<path transform="translate(1085,502)" d="m0 0h8l16 10v4l-14 8-12 8 9-1 9 5v3l-10 6-10 5-1-2-2-42z" fill="#FDFDFD"/>
<path transform="translate(586,149)" d="m0 0h1v81l-8 4h-2v-80l9-3z" fill="#53A6DC"/>
<path transform="translate(313,468)" d="m0 0h1v15l-24 14-21 12-6 3-1-4v-9l5-5 27-15 17-10z" fill="#EE8E51"/>
<path transform="translate(923)" d="m0 0h7v32l3 1-13 8-26 15-4 1 1-2h2v-41l5-3h2l1 38 5-3h2v-25l7-2v22l7-4z" fill="#AE4950"/>
<path transform="translate(971,534)" d="m0 0 6 1 15 8 4 4-11 8-12 7-8-1-15-9-2-4 14-9z" fill="#FEFEFE"/>
<path transform="translate(772,649)" d="m0 0 7 1 14 8 3 2-2 4-13 8-10 5-5-1-16-10-2-3 9-6z" fill="#CCDDEC"/>
<path transform="translate(965,506)" d="m0 0 5 2 17 10v3l-10 6-14 8-9-3-14-9v-3l23-13z" fill="#FEFEFE"/>
<path transform="translate(881,522)" d="m0 0 7 1 17 10v3l-14 9-9 5-6-1-16-9-2-4 16-10z" fill="#FEFEFE"/>
<path transform="translate(912,473)" d="m0 0 7 1 15 9 2 1-2 4-18 11-8 2-11-6-10-6 4-4 15-9z" fill="#FEFEFE"/>
<path transform="translate(947,485)" d="m0 0 9 3 15 9v2l-20 12-3 1h-7l-18-10v-4l21-12z" fill="#FEFEFE"/>
<path transform="translate(913,504)" d="m0 0 7 1 16 8 2 4-10 7-13 7-8-1-15-9-3-3 15-9z" fill="#FEFEFE"/>
<path transform="translate(931,526)" d="m0 0 9 3 14 9-1 3-23 13-6-1-18-11 5-5 13-8z" fill="#FEFEFE"/>
<path transform="translate(768,685)" d="m0 0 7 1 16 10v3l-21 13-4 1-16-8-7-4 1-3z" fill="#CCDDEC"/>
<path transform="translate(563,674)" d="m0 0 7 1 16 9 1 4-20 12-8 1-18-10-1-4z" fill="#FEFEFE"/>
<path transform="translate(937,553)" d="m0 0 6 1 15 8 4 3-1 3-20 12-6 1-11-6-10-6 4-4z" fill="#FEFEFE"/>
<path transform="translate(800,666)" d="m0 0h6l14 8 6 4-4 4-20 11-7-1-19-11 5-4 17-10z" fill="#CCDDEC"/>
<path transform="translate(897,545)" d="m0 0 5 1 19 11v2l-20 12-8 4-3-3-14-9-3-4z" fill="#FEFEFE"/>
<path transform="translate(816,528)" d="m0 0 7 1 18 10-1 3-19 11-4 2h-6l-16-10-2-4z" fill="#FEFEFE"/>
<path transform="translate(591,690)" d="m0 0h6l15 9 1 1v5l-21 12-7-1-16-9-2-4z" fill="#FEFEFE"/>
<path transform="translate(805,630)" d="m0 0h5l18 11 2 2-16 10-10 5-10-4-10-7-1-4 9-6z" fill="#CCDDEC"/>
<path transform="translate(880,492)" d="m0 0h6l16 9 2 4-13 8-12 6-5-1-17-10v-3l15-9z" fill="#FEFEFE"/>
<path transform="translate(850,509)" d="m0 0 6 2 16 10-1 3-19 11-4 2-6-1-16-9-2-3 16-10z" fill="#FEFEFE"/>
<path transform="translate(739,668)" d="m0 0 6 1 11 6 7 5-4 4-19 11h-6l-18-10-1-3 18-11z" fill="#CCDDEC"/>
<path transform="translate(966,570)" d="m0 0h6l17 10 2 3-10 7-16 8-12-6-9-6 1-3z" fill="#FEFEFE"/>
<path transform="translate(943,455)" d="m0 0 6 1 15 8 3 4-5 4-16 9-7 1-10-5-10-6v-2z" fill="#FEFEFE"/>
<path transform="translate(982,26)" d="m0 0h1l1 15-9 6-19 11-3-1 3-3h4l-1-6-12 2-3 3-7 4-9 4-10 7-21 12-16 8h-2l2-4 23-13 17-10 21-12 19-11 17-10z" fill="#0977BA"/>
<path transform="translate(596,655)" d="m0 0 10 4 8 5-1 9-15 9-8 1-20-12 3-3 21-12z" fill="#FEFEFE"/>
<path transform="translate(423,447)" d="m0 0h1v121l-6 3v-121z" fill="#E8A98A"/>
<path transform="translate(730,642)" d="m0 0 7 1 15 10 1 3-18 10-6 3-6-1-16-9v-4l18-11z" fill="#CCDDEC"/>
<path transform="translate(764,622)" d="m0 0 6 2 16 10-2 4-20 12-7-1-16-10v-4l21-12z" fill="#CCDDEC"/>
<path transform="translate(615,477)" d="m0 0h3l1 16 15-7-1 9-6 11-7 7-8 3-6-1-4-5v-13l4-9 6-8z" fill="#EF8D4F"/>
<path transform="translate(867,628)" d="m0 0 7 1 15 8 3 3-9 6-16 9-5-1-16-9-2-4 15-9z" fill="#CCDDEC"/>
<path transform="translate(694,662)" d="m0 0h8l16 10v4l-21 12-3 1-12-6-10-6v-2z" fill="#CCDDEC"/>
<path transform="translate(836,646)" d="m0 0 7 3 14 9-2 4-15 9-3 2h-8l-16-9-2-4 22-13z" fill="#CCDDEC"/>
<path transform="translate(719,616)" d="m0 0h6l19 10v3l-17 10-5 3-7-1-16-8-3-3 10-7z" fill="#CCDDEC"/>
<path transform="translate(840,611)" d="m0 0 5 1 13 8 4 4-12 8-10 6h-6l-16-9-3-4 9-6z" fill="#CCDDEC"/>
<path transform="translate(707,687)" d="m0 0 5 1 17 10v3l-16 10-5 3-7-1-15-9-2-4 8-5z" fill="#CBDCEB"/>
<path transform="translate(1215,120)" d="m0 0 1 2-18 10-24 14-26 15-21 12-26 15-21 12-24 14-26 15-24 14-18 10-3-2 25-15 8-4 17-10 14-8 15-9 7-4 11-6 17-10 11-6 17-10 14-7 13-8 7-4 11-7 12-7 11-6 14-8z" fill="#48A6DA"/>
<path transform="translate(480,439)" d="m0 0h2v96l-5 3h-2v-96z" fill="#84BFE1"/>
<path transform="translate(1288,405)" d="m0 0 21 3 15 3-3 3-36 21-4-1-6-13 1-2 13-1-1-5z" fill="#FEFEFE"/>
<path transform="translate(1e3 551)" d="m0 0 7 1 6 1v19l-15 7-5-2-16-10-1-3z" fill="#FEFEFE"/>
<path transform="translate(850,541)" d="m0 0 6 1 16 9 2 3-12 8 7 3v1l-8-1-26-5-7-1-2-2v-3l18-10z" fill="#FBFBFC"/>
<path transform="translate(1013,603)" d="m0 0h1v9l-1 7-9 6-28 16-10 6h-3v7h-1l-2-17 15-8 20-12 16-9h2z" fill="#CBDCEB"/>
<path transform="translate(462,313)" d="m0 0h2v28l-19 11h-3v-27l9-6z" fill="#182343"/>
<path transform="translate(658,764)" d="m0 0 5 1 14 8 18 8 18 6 8 2-4 2-8 5-7-1-21-8-19-10-9-6 2-5z" fill="#B6C4D5"/>
<path transform="translate(904,573)" d="m0 0h6l14 8 5 3v2l-5 5h6l5-2 5 1 14 8 4 4-10 7 2 8-18-18-11-8-17-10-9-4v-2z" fill="#F9FAFB"/>
<path transform="translate(868,690)" d="m0 0h4v3l3-1-2 5 1 3-20 12-23 13-2-2-12-2 2-3 12-6 25-15z" fill="#B5C4D5"/>
<path transform="translate(1010,512)" d="m0 0 3 1v2h2v4l-2 20-7 3-6 1-13-8-7-4 1-3 11-6 12-7 7 1z" fill="#FDFDFD"/>
<path transform="translate(464,460)" d="m0 0h1v84l-4 3h-3v-83z" fill="#E8AA8B"/>
<path transform="translate(974,437)" d="m0 0h6l11 5v3l-5 5-2 3h-2l-2 4-6 7-5-1-18-10 1-3 15-9z" fill="#FDFDFD"/>
<path transform="translate(757,262)" d="m0 0h11l1 3-11 23-15 31-2 1 4-27 5-29z" fill="#435880"/>
<path transform="translate(343,530)" d="m0 0h1v84l-6 3-1-1v-83z" fill="#EF8D50"/>
<path transform="translate(401,485)" d="m0 0h3v94l-4 3h-2v-96z" fill="#7ABCE2"/>
<path transform="translate(303,553)" d="m0 0h1v84l-6 3-1-40v-44z" fill="#F08A49"/>
<path transform="translate(569,186)" d="m0 0h1v53l-3 3-4 2h-3v-53z" fill="#1E8FCD"/>
<path transform="translate(1029,102)" d="m0 0h1v7l-18 12-13 9-26 15-4 2-1-1v-8l24-14 26-15z" fill="#B4C0D4"/>
<path transform="translate(1013,457)" d="m0 0h1l2 20v16l-3 1-1 2h-3l-7-8-9-10 1-4 10-9 7-7z" fill="#FBF9F8"/>
<path transform="translate(426,323)" d="m0 0 7 4h5l4-2v27l2 1-18 9-1-28z" fill="#128BCA"/>
<path transform="translate(968,472)" d="m0 0h2l5 10 9 10 11 8 12 9-3 3-6 3h-6l-16-10-3-2v-2l9-5h2l-5-5-15-9-4-3v-2z" fill="#FCFBFB"/>
<path transform="translate(1029,88)" d="m0 0h1v7l-16 10-7 6-36 20-2-1 2-2h-2v-5l21-12 29-17z" fill="#A9B8CF"/>
<path transform="translate(446,694)" d="m0 0 5 3 2 6 4 1 15 10-1 2-9-5 3 11 11 9 5 3 1 6-5-2-1 2-5-2-12-7-4-5-1-9h-4l1-6-3-8-3-2v-6z" fill="#0B87C7"/>
<path transform="translate(1314,453)" d="m0 0h16l1 3 11 1 1 4-1 5 3 1-2 2-2 6-10-1-12-6-5-5-1-9z" fill="#EF8C50"/>
<path transform="translate(500,550)" d="m0 0 1 3-18 10-10 6-24 14-28 16-43 25-28 16-52 30-16 9-4 2v-3l20-11 21-12 26-15 24-14 42-24 24-14 14-8 17-10 28-16z" fill="#4B6495"/>
<path transform="translate(1462,437)" d="m0 0 4 2-5 4-22 12-17 10-25 14-15 9-29 17-21 12-7 1 4-4 14-8 17-10 27-15 20-11 28-17 19-11z" fill="#D0D1E8"/>
<path transform="translate(499,559)" d="m0 0h2v2l-18 10-48 28-28 16-26 15-24 14-56 32-19 11-4 2v-3l22-12 17-10 52-30 28-16 24-14 28-16 22-13 25-14z" fill="#4D689B"/>
<path transform="translate(534,216)" d="m0 0h1v44l-7 4h-3v-43z" fill="#1A8ECC"/>
<path transform="translate(322,554)" d="m0 0h2v71l-4 3h-2v-72z" fill="#7BBCE2"/>
<path transform="translate(362,532)" d="m0 0h2v71l-6 1v-71z" fill="#7BBCE1"/>
<path transform="translate(1094,120)" d="m0 0h11l-1 5-4 6-2 5-5 7-3 2-2 5-10 13-5 5-2 1 2-9 9-16 10-19z" fill="#FDDD4C"/>
<path transform="translate(1008,193)" d="m0 0 14 1 1 4-4 6-1 3h-2l-2 5-7 11-3 1-7-3 3-10z" fill="#FEDD46"/>
<path transform="translate(441,491)" d="m0 0h3v66l-6 3v-68z" fill="#83BEE1"/>
<path transform="translate(1047,592)" d="m0 0h2l3 14 2 18v18l-6-2-4-3-1-17-1-10z" fill="#F6F7F9"/>
<path transform="translate(332,555)" d="m0 0h2v65l-6 3v-65z" fill="#415780"/>
<path transform="translate(1061,155)" d="m0 0 6 2 4 2-1 5-10 19-2 3-8-1-5-2 5-10 10-17z" fill="#EE574F"/>
<path transform="translate(791)" d="m0 0h28l-3 3-13 7-10 6-7 1-8-6-1-3z" fill="#94DDFB"/>
<path transform="translate(882,13)" d="m0 0h3v45l5-1-3 3-9 3-1-4v-40l1-4z" fill="#EDB97C"/>
<path transform="translate(312,488)" d="m0 0h2v7l-23 13-22 13-5 3h-2v-8l13-6h2v-2h3v-2l11-6z" fill="#7AB5DD"/>
<path transform="translate(373,535)" d="m0 0h1v62l-6 3v-62z" fill="#42567F"/>
<path transform="translate(313,501)" d="m0 0h1v7l-9 6-18 10-22 13h-2v-7l24-14z" fill="#435881"/>
<path transform="translate(584,151)" d="m0 0h2v41h-1l-1-14-1-6v-13h-4l2 32v16l-1 21 3-1 1-2 1-25h1v30l-7 4h-2v-80z" fill="#0D87C6"/>
<path transform="translate(411,513)" d="m0 0h3v61l-6 2v-61z" fill="#42567D"/>
<path transform="translate(516,234)" d="m0 0h1v36l-8 5h-2v-37z" fill="#48A2DA"/>
<path transform="translate(982,26)" d="m0 0h1l1 15-9 6-12 7h-2v-16l17-10z" fill="#192545"/>
<path transform="translate(1104,539)" d="m0 0 5 2 7 5-5 5-12 7-4 1-10-5-2-3 9-6z" fill="#FEFEFE"/>
<path transform="translate(623,803)" d="m0 0 5 1 52 30 8 5-4 1-7-2-1-3-10-5-11-6-2-2-8-3-7-6-11-4-7 3-3 4-2 5-8-4-2-4z" fill="#107FBE"/>
<path transform="translate(1053,736)" d="m0 0 2 1-22 22-9 6-8 1-7-4 5-4 15-8z" fill="#CCDDEC"/>
<path transform="translate(486,406)" d="m0 0h2v125h-3v-124z" fill="#2D3D63"/>
<path transform="translate(560,376)" d="m0 0 3 3 2 11-1 8-2 40h-1l-2 18h-1l-2-32 1-3 1-14-1-16 1-2z" fill="#0987C7"/>
<path transform="translate(1128,525)" d="m0 0h6l9 5-5 5-13 8-8-1-7-4 1-3z" fill="#FEFEFE"/>
<path transform="translate(1035,62)" d="m0 0h3l-2 7-22 12-24 14-5 3h-2v-5l9-6 26-15z" fill="#B7C4D5"/>
<path transform="translate(1031,375)" d="m0 0 5 1 1 8h5l1 5-1 2h-3v4l3 1 2 4h11v4l-10 4-7 1 1-7-5-1-4-10v-12z" fill="#E5A081"/>
<path transform="translate(442,653)" d="m0 0h1l1 25 1 5-12-6-5-5-1-3v-7z" fill="#1187C7"/>
<path transform="translate(672,673)" d="m0 0 4 1-4 1 3 3 16 9-2 1-2 6-5 4-4-1-6-5-8-11 4-6z" fill="#B5C4D5"/>
<path transform="translate(551,219)" d="m0 0h1v31l-8 5h-2v-32z" fill="#288FCC"/>
<path transform="translate(723,610)" d="m0 0 4 1v2l-16 8-14 9h-2v2l-9 4-13 7-2-1 9-9 14-10 15-8z" fill="#AAC7DE"/>
<path transform="translate(1044,708)" d="m0 0h13l-6 7-14 12-12 9-4 1v-5l15-15 2-4 4-1z" fill="#CBDCEB"/>
<path transform="translate(480,262)" d="m0 0h1v29l-7 4h-3v-29z" fill="#0F86C5"/>
<path transform="translate(452,508)" d="m0 0h3v42l-5 3h-2v-43z" fill="#485E89"/>
<path transform="translate(781,609)" d="m0 0h15l9 3 1 2-4 4-8 2h-11l-9-3-2-3 5-4z" fill="#FEFEFE"/>
<path transform="translate(499,403)" d="m0 0h3v120l-2-1v-109l-3-1v114h-2v-120z" fill="#E8AA8B"/>
<path transform="translate(898,11)" d="m0 0h2v40l-5 3h-2v-40z" fill="#ED685C"/>
<path transform="translate(767,615)" d="m0 0 5 1 8 7 11 6v2l3 1-7 3-19-11-4-1-13 7-2-1 1-4 7-4h2v-2z" fill="#B6C5D6"/>
<path transform="translate(627,828)" d="m0 0h10l18 4 5 5v2l5 2 2 4h-12l-17-10-11-6z" fill="#0987C7"/>
<path transform="translate(282,605)" d="m0 0h2v44l-6 2v-44h4z" fill="#7FBDE1"/>
<path transform="translate(1069,202)" d="m0 0m-1 1m-1 1m-3 1h3l-2 4-18 10-22 13-23 13-14 8-3-2 25-15 8-4 17-10 14-8z" fill="#47A5D9"/>
<path transform="translate(612,709)" d="m0 0 2 1 2 19 2 1h-9l-11-6-3-3v-2l14-8z" fill="#FEFEFE"/>
<path transform="translate(664,652)" d="m0 0 2 1v3l14 8-4 4-11 7h-4l-3-7 2-9z" fill="#CADBEA"/>
<path transform="translate(1105,23)" d="m0 0h1v5l-24 14-19 11-3 1v-6l17-10 5-1v-2l16-8z" fill="#ACBAD0"/>
<path transform="translate(383,558)" d="m0 0 2 2v30l-7 4-1-10v-22z" fill="#E8AA8B"/>
<path transform="translate(1185,469)" d="m0 0 9 3 20 12 11 7 11 6 25 15 12 6v3l-5-2-25-14-22-13-26-15-10-6z" fill="#C5D5E7"/>
<path transform="translate(705,655)" d="m0 0 2 1v2l18 10 4 2-3 2 2 3-11 6v-2h-2l1-3 2-1v-2l-16-10-6-1 5-5z" fill="#B5C4D5"/>
<path transform="translate(500,539)" d="m0 0h1v6l-16 9-17 10-5 3-11 3 3-3 7-4h2l1-4 26-15z" fill="#617BAE"/>
<path transform="translate(622,470)" d="m0 0h9l5 6v5l-9 6-5 3h-2v-18z" fill="#83BDE1"/>
<path transform="translate(868,39)" d="m0 0 2 1v27l11-6 2 1-15 9-5 1v-30z" fill="#D3665D"/>
<path transform="translate(386,632)" d="m0 0 1 3-15 8-24 14-26 15-28 16-15 9-1-3 25-14 24-14 28-16 26-15z" fill="#33456C"/>
<path transform="translate(1016,488)" d="m0 0h1v9h6l2 2 1 6-5 6-4 1-8-2 1-14h2l2-4z" fill="#E8AA89"/>
<path transform="translate(811,328)" d="m0 0h6l1 9 1 2 5-1 2-3 3 1 2 5-8 6-2 1h-6l-4-4-1-2v-13z" fill="#7EBCE1"/>
<path transform="translate(472,714)" d="m0 0 11 6 19 11 11 6 24 14 10 6-3 1-14-8-7-3-15-9-12-6-7-3-10-8-7-5z" fill="#1487C5"/>
<path transform="translate(1013,474)" d="m0 0h2l1 3v16l-3 1-1 2h-3l-7-8-3-5 10-7z" fill="#F8F6F8"/>
<path transform="translate(476,441)" d="m0 0 4 1-2 3v85l3 2-1 4-5 2v-96z" fill="#93BEE5"/>
<path transform="translate(498,258)" d="m0 0h1v23l-8 4h-2v-22l8-4z" fill="#198BC9"/>
<path transform="translate(1381,451)" d="m0 0h1l-1 7-7 6-10 4-4 1h-17v-3l1-2 19-3 12-4 5-5z" fill="#C11D31"/>
<path transform="translate(565,191)" d="m0 0h2l1 2v37l-2 7h-3v-39z" fill="#48A2DA"/>
<path transform="translate(810,24)" d="m0 0h1v77l5-3 1-19 6-5h1l1 5v15h-2l-2-10h-2v11h2l-1 4-8 4h-2z" fill="#9D918C"/>
<path transform="translate(658,764)" d="m0 0h3v2h-4v2l5 2 22 13 12 7v2l-10-3-21-10-12-8 2-5z" fill="#D1D0E7"/>
<path transform="translate(892,113)" d="m0 0h2l1 16 1 8-1 17v35l-1 19h-1l-1-12z" fill="#0179BD"/>
<path transform="translate(785,546)" d="m0 0 6 1 11 6 4 3h-37l3-3z" fill="#FEFEFE"/>
<path transform="translate(1378,486)" d="m0 0 4 2-29 17-21 12-7 1 4-4 14-8 17-10z" fill="#D1D1E7"/>
<path transform="translate(1315,453)" d="m0 0h15l1 3 11 1 1 4-2 4-5 1-7-3v-2l-6-1-4 1-4-5z" fill="#FFDA41"/>
<path transform="translate(499,559)" d="m0 0h2v2l-18 10-48 28-28 16-5 2v-2l26-15 28-16 15-9 25-14z" fill="#475E8C"/>
<path transform="translate(441,325)" d="m0 0h1v27l2 1-8 4-2-1 1-27z" fill="#0E84C3"/>
<path transform="translate(892,682)" d="m0 0 4 1-2 6-18 10h-3l-1-3 2-3h-2l-1-2-2-1 4-3 5 1 7-4z" fill="#A9C6DE"/>
<path transform="translate(311,648)" d="m0 0h2v2l-18 10 16-8 7-4 2 1-13 8-21 12-8 4v-6l15-9z" fill="#4E6798"/>
<path transform="translate(463,475)" d="m0 0h1v54l-1-3-2-1v-7l-2-6 1-11 2-4v-6l-3-1v-12z" fill="#EF8A49"/>
<path transform="translate(293,614)" d="m0 0h1v29l-6 3v-29z" fill="#465B85"/>
<path transform="translate(959,39)" d="m0 0h2v16l-5 3-3-1 3-3h4l-1-6-12 2-3 3-7 4-5 2-3-1v-2l20-11z" fill="#0578BB"/>
<path transform="translate(914,19)" d="m0 0h1l1 23-8 4v-25z" fill="#E8AA88"/>
<path transform="translate(899,672)" d="m0 0 2 1-1 6 2 5-8 4 1-5-4 1-9 2-5 3-2-3z" fill="#B5C4D5"/>
<path transform="translate(871,300)" d="m0 0 2 1-3 3 2 2-8 5h-2l-1 3 2 2-5 2-1-3-11 6-2-1 2-3-2-1 17-10z" fill="#A7B2C8"/>
<path transform="translate(634,809)" d="m0 0 4 1 23 13 24 14 3 3-7-1-4-1-1-3-10-5-11-6-2-2-8-3-7-6-4-2z" fill="#1185C4"/>
<path transform="translate(809,601)" d="m0 0h11l17 3 3 2-10 5-7-1-9-5-5-3z" fill="#C9DBEA"/>
<path transform="translate(1055,399)" d="m0 0 13 1 6 1 10 6 11 9 1 3 3 1v2l-5-2-8-6-13-8-5-2-12-2z" fill="#1A5589"/>
<path transform="translate(511,236)" d="m0 0h5v29h-1l-1-22-3 3v13l-2 9h-1l-1-11v-19z" fill="#0D87C7"/>
<path transform="translate(852,58)" d="m0 0h3v19l-5 3-3-1v-18z" fill="#ECB57D"/>
<path transform="translate(838,109)" d="m0 0 2 1-10 7-14 10-14 7-10 3 4-4 15-9 11-6z" fill="#087ABC"/>
<path transform="translate(1029,102)" d="m0 0h1v7l-9 6-8 4-4-1-5 2-5 1 3-3 26-15z" fill="#A8B6CE"/>
<path transform="translate(1092,125)" d="m0 0 1 2-11 23 7-3-2 4-10 14-6 4 2-9 9-16z" fill="#FDE857"/>
<path transform="translate(1071,162)" d="m0 0 1 4 1 1 3-2-2 4-7 11-6 8-10-1-5-1 1-2 11 2 2-5 10-18z" fill="#F5F8FA"/>
<path transform="translate(836,312)" d="m0 0 3 4v11l-4 10-4-2-1-4 1-9 1-5z" fill="#EE8D57"/>
<path transform="translate(1029,187)" d="m0 0 2 4-6 9-7 13-9 12-2 2h-5l1-2h3l2-5 8-13h2l1-5 9-13z" fill="#4FA5D8"/>
<path transform="translate(695,630)" d="m0 0 16 8 10 4-5 4-5-1-11-6-9-5 4-2z" fill="#B4C4D6"/>
<path transform="translate(487,466)" d="m0 0h1v65h-3v-22l1-32z" fill="#2A4175"/>
<path transform="translate(879,620)" d="m0 0 5 1 15 10 3 4-1 1-7-1-14-9-3-4z" fill="#C9DAEA"/>
<path transform="translate(830,248)" d="m0 0h1v5l-17 10-11 6v-5l9-6z" fill="#3E5788"/>
<path transform="translate(653,358)" d="m0 0h1v5l-8 5-17 10h-2v-5z" fill="#435985"/>
<path transform="translate(883,24)" d="m0 0h1v29l-5-1v-26z" fill="#F08A49"/>
<path transform="translate(666,681)" d="m0 0 7 3 13 8v3l-4 3-4-1-6-5-6-8z" fill="#CADBEA"/>
<path transform="translate(1432,455)" d="m0 0 3 1-14 8-3 3-21 12-13 8h-5l4-4 19-10 15-9z" fill="#BFCADD"/>
<path transform="translate(1077,703)" d="m0 0 2 1-1 4-8 10-3 1-3-4 1-5 3-6z" fill="#ABC6DC"/>
<path transform="translate(611,678)" d="m0 0h2l1 8-1 9-12-7v-4z" fill="#FEFEFE"/>
<path transform="translate(774,620)" d="m0 0 4 2 10 6 3 1v2l3 1-7 3-18-11z" fill="#AAC6DD"/>
<path transform="translate(1008,107)" d="m0 0 2 2-21 12-18 10-2-1 3-2v-3l19-10 10-4z" fill="#C4C9DF"/>
<path transform="translate(1332,450)" d="m0 0h15l-3 11-3-3-10-2-1-2-15-1 1-2z" fill="#EF844A"/>
<path transform="translate(303,553)" d="m0 0h1v19l-3-3-2-1-1 32h-1v-44z" fill="#E8AA8B"/>
<path transform="translate(663,304)" d="m0 0h2v5l-17 10-7 4h-2l2-6z" fill="#415986"/>
<path transform="translate(312,488)" d="m0 0h2v7l-12 7-7-1-3 1v-3z" fill="#7BB3DB"/>
<path transform="translate(836,52)" d="m0 0h3v10l-1 12-5-2-1 2v-17l2-4z" fill="#EC7364"/>
<path transform="translate(1341,445)" d="m0 0h8l-1 4-28 3-3-1v-3l12-2z" fill="#BF1B30"/>
<path transform="translate(981,253)" d="m0 0 4 2-16 9-6 4h-3v2l-3 1 2-5 7-12h3l-1 5 10-4z" fill="#44A1D8"/>
<path transform="translate(986,220)" d="m0 0 12 3-1 2h-10l-2 3h-2l-1 7-4 6-5 9-3 2 1-7 13-22z" fill="#429FD6"/>
<path transform="translate(1011,116)" d="m0 0m-2 1 4 1-2 4-15 10-9 5-4-1 20-13h-1-3v-2l5-2z" fill="#C4CADE"/>
<path transform="translate(334,654)" d="m0 0h2v2l-28 16-24 14-6 3v-3l22-12 17-10z" fill="#304167"/>
<path transform="translate(551,225)" d="m0 0h1v21l-6 1-1-1 1-16 2-3 3 2z" fill="#46A1D9"/>
<path transform="translate(565,502)" d="m0 0h1l1 6v20l-1 16-2-4v-8l-1-2-1-21z" fill="#027BBE"/>
<path transform="translate(328,650)" d="m0 0 3 1-26 15-21 12-6 3v-3l20-11 21-12z" fill="#374A73"/>
<path transform="translate(771,600)" d="m0 0h15l5 1-2 1v2l-4 2h-9l-3 1-6-4-6-1v-1z" fill="#AEC5DA"/>
<path transform="translate(955)" d="m0 0h1v19l-2 2h-4v-18z" fill="#1EBBD6"/>
<path transform="translate(688,511)" d="m0 0 2 1-5 5-11 7-13 7-3-1 4-4 13-8 11-6z" fill="#077DBF"/>
<path transform="translate(819,213)" d="m0 0h2l-1 5-17 10-5 1 2-5 17-10z" fill="#455A85"/>
<path transform="translate(958)" d="m0 0h7v14l-5 3h-2z" fill="#ED5D54"/>
<path transform="translate(1099,422)" d="m0 0 5 2 5 4 5 5 6 7 1 6-6 10-2 2-3-1 6-9 1-5-4-7-9-9z" fill="#27375B"/>
<path transform="translate(533,206)" d="m0 0 2 1v9l-10 5-1-2v-7z" fill="#ED5E55"/>
<path transform="translate(1500,496)" d="m0 0m-1 1 2 3-23 13-12 7h-2l2-4 19-11 8-4z" fill="#CBDCED"/>
<path transform="translate(475,272)" d="m0 0 6 1v13l-4 3h-3l-1-9 1-7z" fill="#48A2DA"/>
<path transform="translate(1411,548)" d="m0 0m-1 1 1 3-18 10-17 10-5 2 1-3 17-10 10-6z" fill="#C3D6EA"/>
<path transform="translate(1540,461)" d="m0 0h1v16l-26 15v-3l9-6 8-5 3-1v-2l3-3z" fill="#C3D6E7"/>
<path transform="translate(615,643)" d="m0 0h1l-1 13-1 3-5-2-6-4 5-5z" fill="#FEFEFE"/>
<path transform="translate(1185,469)" d="m0 0 9 3 20 12 9 6-4 1-27-16-7-4z" fill="#CCDAE9"/>
<path transform="translate(343,530)" d="m0 0 1 2-3 2-1 3h-2v79h-1v-83z" fill="#E8AA8B"/>
<path transform="translate(1156,441)" d="m0 0 4 2-1 4 2 6 12 8 10 5-1 2-5-2-21-12z" fill="#C9DAEA"/>
<path transform="translate(1095,139)" d="m0 0h2l-2 6-7 9-9 11-1 3h-2l-1 3h-2l2-4 7-11 6-7 2-5 3-1z" fill="#5BACDC"/>
<path transform="translate(516,234)" d="m0 0h1v36l-8 5h-2v-18h1v11l5-1 2-2 1-29-2-1z" fill="#3297D1"/>
<path transform="translate(1099,185)" d="m0 0m-1 1m-2 1h2v3l-25 14-6 3 2-4 3-3 10-5z" fill="#48A6DA"/>
<path transform="translate(643,355)" d="m0 0h3l-1 5-17 10h-1v-5l13-8z" fill="#445E8D"/>
<path transform="translate(757,610)" d="m0 0 6 2 2 4-6 4-6-1-2-2 1-4z" fill="#FEFEFE"/>
<path transform="translate(500,550)" d="m0 0 1 3-18 10-25 15-3-2 27-15 17-10z" fill="#4E699B"/>
<path transform="translate(446,694)" d="m0 0 5 3 3 7v13h-4l1-6-3-8-3-2v-6z" fill="#0179BD"/>
<path transform="translate(386,632)" d="m0 0 1 3-15 8-24 14-3 1-1-2 18-10z" fill="#4A6290"/>
<path transform="translate(1286,527)" d="m0 0 5 2 24 13 1 2-4 1-27-16z" fill="#C7D7E8"/>
<path transform="translate(819,263)" d="m0 0h2l-1 5-16 9h-1v-5z" fill="#445C8A"/>
<path transform="translate(1013,235)" d="m0 0m-3 1h3v3l-25 14-3-2 15-9z" fill="#4AA4DA"/>
<path transform="translate(830,642)" d="m0 0 1 2-1 2h3v2l-15 9h-2v-2l3-3-3-1z" fill="#B6C4D5"/>
<path transform="translate(381,572)" d="m0 0 2 4v14l-4 4h-1v-21l2 2z" fill="#EF8B4C"/>
<path transform="translate(1179,139)" d="m0 0m-1 1 1 3-31 18v-3l8-5 5-3 11-7z" fill="#45A6D9"/>
<path transform="translate(471,266)" d="m0 0h1v18h2v5l5-3h2v5l-7 4h-3z" fill="#2994D0"/>
<path transform="translate(585,142)" d="m0 0h2v7l-3 3-4 2h-3v-8z" fill="#ED5C53"/>
<path transform="translate(1119,12)" d="m0 0h5v7l-5 4-4 1v-9z" fill="#FFE850"/>
<path transform="translate(997,121)" d="m0 0h2l1 3-12 8-8 2-2-2z" fill="#A6ADCB"/>
<path transform="translate(942,13)" d="m0 0h5v12l-6 3v-14z" fill="#FFE048"/>
<path transform="translate(1013,474)" d="m0 0h2l-1 4-8 4 2 4 3 2-3 1 1 2-4-2-1-4h-2l-1 2-2-4 10-7z" fill="#CCDCEA"/>
<path transform="translate(216,770)" d="m0 0h6l5 3 1 3-1 5-5-1-4-3z" fill="#0179BD"/>
<path transform="translate(666,652)" d="m0 0 5 1 10 6-1 5-5-2-10-6z" fill="#B6C4D5"/>
<path transform="translate(929)" d="m0 0h1v26l-2-3v-16l-1 7-1 10h-1l-1-7v-13l4-1z" fill="#F08A49"/>
<path transform="translate(1046,701)" d="m0 0h9l13 2v2h-24l2-1z" fill="#D6E3EE"/>
<path transform="translate(849,608)" d="m0 0 7 1 16 6 2 1v2h-8l-12-7-5-2z" fill="#C6D8E7"/>
<path transform="translate(1182,99)" d="m0 0 2 1-9 11h-2l-2 4-11 12h-3v-2l4-2 9-11 11-12z" fill="#4FA6D9"/>
<path transform="translate(974,96)" d="m0 0h2v9l-5 3h-3v-8z" fill="#EE554E"/>
<path transform="translate(497,252)" d="m0 0h2v6l-5 4-5 1v-7z" fill="#EE524C"/>
<path transform="translate(1218,61)" d="m0 0h1v9h-5l-8 8-6 2 5-5z" fill="#3B9ED6"/>
<path transform="translate(878,52)" d="m0 0h7v6l5-1-3 3-9 3z" fill="#CB9581"/>
<path transform="translate(360,631)" d="m0 0 3 1-9 6-21 12-4-1 23-13z" fill="#4A628F"/>
<path transform="translate(1081,442)" d="m0 0 5 1 5 5-9 5h-2z" fill="#ECEDF3"/>
<path transform="translate(741,411)" d="m0 0h2l-1 3-17 11-8 3h-6l2-2 11-4 11-6z" fill="#2492CF"/>
<path transform="translate(479,255)" d="m0 0h2v7l-8 4h-2v-6z" fill="#EE544D"/>
<path transform="translate(1050,52)" d="m0 0h3v8l-6 4h-2v-9z" fill="#4AA5D9"/>
<path transform="translate(422,554)" d="m0 0h2v14l-5 1v-12z" fill="#EF8B4B"/>
<path transform="translate(1326,549)" d="m0 0 7 4 9 6 9 5 1 3-5-2-22-13z" fill="#C8D8E8"/>
<path transform="translate(343,657)" d="m0 0h2v2l-25 14-6 3-1-2 23-13z" fill="#374A73"/>
<path transform="translate(1096,417)" d="m0 0 5 3 12 8 7 9-1 3-6-7-8-7-6-4-3-3z" fill="#0B67A7"/>
<path transform="translate(822,313)" d="m0 0h2v8l-4 4-6-1 4-7z" fill="#E8AA8B"/>
<path transform="translate(515,227)" d="m0 0h2v7l-8 4h-2v-6z" fill="#EE574F"/>
<path transform="translate(706,636)" d="m0 0 11 5 4 2-5 3-5-1-6-3z" fill="#B6C4D5"/>
<path transform="translate(499,559)" d="m0 0h2v2l-18 10-13 8-3-1 4-3 25-14z" fill="#526DA0"/>
<path transform="translate(322,554)" d="m0 0h2v61h-1l-1-58-2-2z" fill="#A6C6DF"/>
<path transform="translate(665,827)" d="m0 0 4 1 18 10 1 2-7-1-4-1-1-3-10-5z" fill="#1089C8"/>
<path transform="translate(364,637)" d="m0 0h2v2l-25 14-5 2v-2z" fill="#4A618F"/>
<path transform="translate(762,620)" d="m0 0 3 1-3 3-11 6-2-1 1-4 7-4z" fill="#AAC6DC"/>
<path transform="translate(388,615)" d="m0 0 2 2-26 15-2-2z" fill="#5B76AC"/>
<path transform="translate(650,320)" d="m0 0h2v5l-10 6-3-1 1-4z" fill="#435C8C"/>
<path transform="translate(944,48)" d="m0 0h3v2l-3 3-7 4-5 2-3-1v-2z" fill="#077DC0"/>
<path transform="translate(739,663)" d="m0 0 2 1-3 3 1 2-10 5-4-2 1-2h3v-2z" fill="#AEC5DA"/>
<path transform="translate(569,180)" d="m0 0h1v6l-8 5h-2v-6z" fill="#EE5951"/>
<path transform="translate(863,693)" d="m0 0h4l-1 4-6 4-5-1-1 2-2-1v-2z" fill="#A9C6DE"/>
<path transform="translate(677,412)" d="m0 0 5 5 7 6 12 5v1h-8l-10-7-6-7z" fill="#2593CF"/>
<path transform="translate(466,813)" d="m0 0 2 1-3 3-1 3v13l3 12h-3l-3-14v-8l2-7z" fill="#1C2B52"/>
<path transform="translate(310,489)" d="m0 0v3 2l-8 2v2l-9 4-2-2z" fill="#B1C2D6"/>
<path transform="translate(303,627)" d="m0 0h1v10l-6 3v-7l2-5z" fill="#E8AA8B"/>
<path transform="translate(668,454)" d="m0 0h2v2l-23 13-6 3v-3l12-6z" fill="#31436A"/>
<path transform="translate(1011,116)" d="m0 0m-2 1 4 1-2 4-7 3-4 3-2-1 4-4h-3v-2l5-2z" fill="#D0CEE5"/>
<path transform="translate(685,629)" d="m0 0 1 2 2 1h-3l-2 4-4 4-6 3-2-1 9-9z" fill="#ADC6DB"/>
<path transform="translate(808,228)" d="m0 0h2l-1 5-9 5h-2l1-5z" fill="#455D8A"/>
<path transform="translate(1e3 763)" d="m0 0m-1 1v3l-25 14-3-1 21-12z" fill="#BAC9DA"/>
<path transform="translate(491,744)" d="m0 0 4 2 4 5 2 1v2l5 2 1 2-5-2-17-10 2-1 5 2z" fill="#0986C6"/>
<path transform="translate(1148)" d="m0 0 4 1-18 10-3 2v-4l14-8z" fill="#5B76AC"/>
<path transform="translate(961,666)" d="m0 0 2 1v40h-1l-1-32-2 2z" fill="#426094"/>
<path transform="translate(324,643)" d="m0 0 2 1-11 7-14 7-5 3-2-1 17-10z" fill="#B2C1D3"/>
<path transform="translate(1201,81)" d="m0 0v3l-9 9-4 3-3-1 13-13z" fill="#55ABDA"/>
<path transform="translate(328,650)" d="m0 0 3 1-24 14-2-2 21-12z" fill="#35476F"/>
<path transform="translate(413,601)" d="m0 0 2 1-9 6-14 8-3-1 13-8z" fill="#4A6190"/>
<path transform="translate(477,737)" d="m0 0 7 3 8 5 2 4-9-4-9-5z" fill="#48A2DA"/>
<path transform="translate(980,118)" d="m0 0 3 1-3 3-8 4-1 2h-2v-5l7-4z" fill="#AFBBD2"/>
<path transform="translate(309,740)" d="m0 0h3l-2 6-3 3-5 1v-4z" fill="#0179BD"/>
<path transform="translate(1081,556)" d="m0 0 7 5-1 4-6 3z" fill="#FEFEFE"/>
<path transform="translate(917,662)" d="m0 0h5v9l-2 3-3-3 1-2-1-5-2-1z" fill="#B3C4D6"/>
<path transform="translate(642,361)" d="m0 0 2 1-1 3-14 7 2-5z" fill="#E9ECF2"/>
<path transform="translate(1048,238)" d="m0 0 3 3-3 3-4 2-6-1 4-4z" fill="#D2CFE7"/>
<path transform="translate(1109,119)" d="m0 0 2 3-10 13-2 3-3-1 8-11z" fill="#42A1D7"/>
<path transform="translate(720,357)" d="m0 0 5 1 6 2 15 6v2l-7-1-12-6-7-3z" fill="#1B8FCC"/>
<path transform="translate(551,214)" d="m0 0h1v5l-5 3-5 1 1-4z" fill="#ED5E53"/>
<path transform="translate(298,675)" d="m0 0 2 2-21 12-1-3z" fill="#374A74"/>
<path transform="translate(618,646)" d="m0 0h1v19l-1 10-4 2-1-3 3-3 1-7z" fill="#B3C4D6"/>
<path transform="translate(1500,496)" d="m0 0m-1 1 2 3-16 9v-3l10-7z" fill="#C3D7E9"/>
<path transform="translate(653,358)" d="m0 0 1 4-11 6-4-1 5-4z" fill="#446091"/>
<path transform="translate(359,593)" d="m0 0 1 4 1-1 2-1 1 8-6 1v-10z" fill="#84B7EA"/>
<path transform="translate(615,477)" d="m0 0h3l1 18h-2l-1-12-3-1-4 3 2-4z" fill="#E8A786"/>
<path transform="translate(738,283)" d="m0 0h2v9l-1 7h-1l-3-12-2-2z" fill="#EC9662"/>
<path transform="translate(723,291)" d="m0 0 2 1-9 7-12 12v-3l11-11z" fill="#EB9B6C"/>
<path transform="translate(816,261)" d="m0 0 2 1 1 2-14 7 2-5z" fill="#E4E9F0"/>
<path transform="translate(544,246)" d="m0 0h8v4l-8 4z" fill="#128BCA"/>
<path transform="translate(634,739)" d="m0 0 4 2 7 9 3 7-1 3-7-13-6-7z" fill="#1B2747"/>
<path transform="translate(442,592)" d="m0 0h2v2l-18 10-3-1z" fill="#4E699D"/>
<path transform="translate(871,300)" d="m0 0 2 1-3 3 2 2-8 5-2-1 2-3v-3z" fill="#909EBA"/>
<path transform="translate(494,266)" d="m0 0 3 1-1 9h-4v-8z" fill="#48A2DA"/>
<path transform="translate(1177,102)" d="m0 0 2 1-11 12-5 6v-3l4-6z" fill="#F9ED94"/>
<path transform="translate(784,600)" d="m0 0 7 1-2 1v2l-7 1-6-3v-1z" fill="#CCDDEC"/>
<path transform="translate(1259,511)" d="m0 0 14 7v3l-5-2-9-5z" fill="#C7D7E8"/>
<path transform="translate(663,304)" d="m0 0h2v5l-7 4-4-1 5-2-1-3z" fill="#415B8A"/>
<path transform="translate(892,78)" d="m0 0m-2 1 2 1-4 5-9 3 2-4z" fill="#0A76B8"/>
<path transform="translate(971,3)" d="m0 0h2v7l-6 2v-6z" fill="#243357"/>
<path transform="translate(640,795)" d="m0 0 2 1-9 6-9 1 4-3z" fill="#D3D1E7"/>
<path transform="translate(627,546)" d="m0 0h2v3l-11 6h-3v-2z" fill="#077DC0"/>
<path transform="translate(814,260)" d="m0 0v3l-11 6v-5l4-2 5-1z" fill="#405783"/>
<path transform="translate(1411,548)" d="m0 0m-1 1 1 3-13 7h-2l1-3z" fill="#C8DAEB"/>
<path transform="translate(988,112)" d="m0 0h2l-1 5-4 2h-7l3-3z" fill="#98A6C3"/>
<path transform="translate(819,84)" d="m0 0h2l2 4 1 7-3 1-2-1z" fill="#F08B4A"/>
<path transform="translate(1435,535)" d="m0 0h2v2l-16 9v-3l10-6z" fill="#C3D6E9"/>
<path transform="translate(1432,455)" d="m0 0 3 1-14 8-3 3h-3v-2z" fill="#C2CADD"/>
<path transform="translate(986,220)" d="m0 0 12 3-1 2h-10l-3 3 1-7z" fill="#4BA3D9"/>
<path transform="translate(569,186)" d="m0 0h1v15h-2l-1-10-2-1z" fill="#0F85C4"/>
<path transform="translate(838,109)" d="m0 0 2 1-10 7-5 4-2-1 4-5z" fill="#0D76B8"/>
<path transform="translate(1274,519)" d="m0 0 11 6 1 3-4-1-9-5z" fill="#D3DFEC"/>
<path transform="translate(1166,459)" d="m0 0 6 1 11 6-1 2-5-2-11-6z" fill="#C7D6E7"/>
<path transform="translate(828,310)" d="m0 0h5l-1 5-3 4h-2v-8z" fill="#4B4B71"/>
<path transform="translate(1193,85)" d="m0 0 2 1-9 9-6 7-1-3z" fill="#FCEA6F"/>
<path transform="translate(616,657)" d="m0 0 2 1-1 13-4 1 1-7h2z" fill="#D1E0EE"/>
<path transform="translate(282,606)" d="m0 0h1v9l-2-4-2 9h-1v-13z" fill="#77B3E7"/>
<path transform="translate(1117,440)" d="m0 0 2 2-1 7-3 7-2 2-3-1 6-9z" fill="#263659"/>
<path transform="translate(1008,107)" d="m0 0 2 2-15 9-1-2 3-3z" fill="#C3C9DD"/>
<path transform="translate(923,762)" d="m0 0 3 1-5 4-7 4-2-1 4-4z" fill="#EEF1F6"/>
<path transform="translate(386,632)" d="m0 0 1 3-16 8-1-2z" fill="#4C679A"/>
<path transform="translate(1316,543)" d="m0 0 10 6v2l-5-1-7-4v-2z" fill="#D8E3EE"/>
<path transform="translate(265,515)" d="m0 0 2 1v3 3l-5 2v-8z" fill="#88BBE2"/>
<path transform="translate(1111,178)" d="m0 0m-1 1m-1 1 2 2-12 7v-3l7-5z" fill="#45A8DA"/>
<path transform="translate(1122,172)" d="m0 0 2 3-11 6-3-1 5-4z" fill="#4BA6DA"/>
<path transform="translate(1115,436)" d="m0 0 4 2 2 4-1 6-3 5-1-3 2-4v-6h-2z" fill="#405885"/>
<path transform="translate(853,312)" d="m0 0m-2 1 2 1-3 5-6 2 2-4-2-1z" fill="#C1BBCF"/>
<path transform="translate(803,142)" d="m0 0 2 1-8 5-7 4-3-1 14-8z" fill="#037CBF"/>
<path transform="translate(923)" d="m0 0h6l-1 4h-3l-1 13h-1z" fill="#EF4F4A"/>
<path transform="translate(952,360)" d="m0 0 3 1-10 7-4 1 4-5z" fill="#047ABD"/>
<path transform="translate(658,764)" d="m0 0h3v2h-4l1 7-5-2 2-5z" fill="#C9DAE9"/>
<path transform="translate(614,696)" d="m0 0 4 2v6l-4 4-1-10z" fill="#B6C4D5"/>
<path transform="translate(1075,493)" d="m0 0 5 2v4l-3 3-2-4z" fill="#FCFCFD"/>
<path transform="translate(1260,418)" d="m0 0 5 1v3l-6 1-3-3z" fill="#FEFEFE"/>
<path transform="translate(693,323)" d="m0 0 4 5 4 4-9-3-1-4z" fill="#ED9661"/>
<path transform="translate(1144,119)" d="m0 0 10 3 6 2v1l-8-1-11-3z" fill="#D5EAF6"/>
<path transform="translate(1077,703)" d="m0 0 2 1-1 4-4 4-2-2 3-2-3-3z" fill="#AFBFD3"/>
<path transform="translate(360,631)" d="m0 0 3 1-9 6-5 2-1-2z" fill="#4B6494"/>
<path transform="translate(1340,558)" d="m0 0 11 6 1 3-5-2-9-5z" fill="#C6D5E6"/>
<path transform="translate(312,488)" d="m0 0h2v7l-5 2v-3l2-5z" fill="#81BEE0"/>
<path transform="translate(973,387)" d="m0 0 6 3-3 2-9 2v-3l5-1z" fill="#2164A0"/>
<path transform="translate(986,340)" d="m0 0 2 1-2 2-1 22h-1v-22l-2-1z" fill="#1168A8"/>
<path transform="translate(768,282)" d="m0 0 6 3 4 5-4-2-1-1-8 1 2-5z" fill="#EC9662"/>
<path transform="translate(1077,198)" d="m0 0m-2 1h2v3l-10 5 2-4 3-3z" fill="#50A7DB"/>
<path transform="translate(817,79)" d="m0 0h1l1 16h2v2l-4 1z" fill="#FCD34F"/>
<path transform="translate(510,756)" d="m0 0 4 2 4 5-1 2-8-5z" fill="#0987C7"/>
<path transform="translate(388,615)" d="m0 0 2 2-12 7-2-1 5-4z" fill="#5873A9"/>
<path transform="translate(463,560)" d="m0 0 2 1-4 4-6 3-3-1 9-6z" fill="#536FA4"/>
<path transform="translate(1413,466)" d="m0 0 3 1-3 3-8 4-2-2z" fill="#C0CBDF"/>
<path transform="translate(1071,404)" d="m0 0 6 1 3 2v2l4 1 2 1v2l-5-2-10-6z" fill="#26365C"/>
<path transform="translate(851,31)" d="m0 0 2 1-1 2h-12l-6 2 1-4z" fill="#D8B9B7"/>
<path transform="translate(792,710)" d="m0 0h4v7l-7-4z" fill="#B6C4D5"/>
<path transform="translate(1366,540)" d="m0 0 6 1 6 3 1 3-3 1v-3h-5v-3l-5-1z" fill="#AEBBD2"/>
<path transform="translate(1381,453)" d="m0 0 1 3-6 7-3 1-2-2 8-6z" fill="#EF4F4A"/>
<path transform="translate(650,317)" d="m0 0 2 1 1 1v6h-1v-5l-8 4 2-5z" fill="#DEE3EC"/>
<path transform="translate(807,5)" d="m0 0 2 1-7 5-5 3-4-1z" fill="#8BC4EE"/>
<path transform="translate(1008,510)" d="m0 0 9 1-1 7h-3l2-1v-2h-2l-2-3z" fill="#D5D0E1"/>
<path transform="translate(653,463)" d="m0 0 2 1-13 8-1-3z" fill="#374972"/>
<path transform="translate(1080,439)" d="m0 0h5l5 5 1 2-5-2-2-1v-2h-5z" fill="#302945"/>
<path transform="translate(731,338)" d="m0 0 1 4-2 3-7-3 4-2z" fill="#EC8E63"/>
<path transform="translate(812,258)" d="m0 0h6v3l-3 1h-3l-5 2v-3z" fill="#445E8E"/>
<path transform="translate(993,246)" d="m0 0 3 2-8 5-3-2z" fill="#3E9ED6"/>
<path transform="translate(310,489)" d="m0 0v3 2l-8 2 1-3z" fill="#B6C7D8"/>
<path transform="translate(1524,483)" d="m0 0m-2 1h2v3l-10 5 2-4z" fill="#C0D5E9"/>
<path transform="translate(633,361)" d="m0 0h2v2l-4 2v3l-4 2v-5z" fill="#385183"/>
<path transform="translate(945,61)" d="m0 0 3 1-9 6h-3v-2h2v-2z" fill="#027BBE"/>
<path transform="translate(1176,58)" d="m0 0 5 1-4 2-6 9-1-3z" fill="#FFE850"/>
<path transform="translate(400,616)" d="m0 0h2v2l-10 6-3-1z" fill="#496291"/>
<path transform="translate(963,260)" d="m0 0 1 2v3l-1 3h-3v2l-3 1 2-5z" fill="#329BD1"/>
<path transform="translate(1029,187)" d="m0 0 2 4-5 7h-2l1-4z" fill="#389BD4"/>
<path transform="translate(1011,116)" d="m0 0m-2 1h2v2l-5 3-7 1v-2l5-2z" fill="#CDD5E2"/>
<path transform="translate(1007,115)" d="m0 0h4v2l-5 3-7 1 3-3z" fill="#929DB5"/>
</svg>
